#Comment line ignore any data following # character 
#Hierarchical Translation and Rotation (.htr) file 
[Header]	
#Header keywords are followed by a single value 
FileType HTR		#Single word string
DataType HTRS		#Translation followed by rotation and scale data
FileVersion 1		#integer
NumSegments 64		#integer
NumFrames 3		#integer
DataFrameRate 30		#integer, data frame rate in this file
EulerRotationOrder ZYX
CalibrationUnits mm
RotationUnits Degrees
GlobalAxisofGravity Y
BoneLengthAxis Y
ScaleFactor 1.00
[SegmentNames&Hierarchy]
#CHILD	PARENT
Pinger_Root GLOBAL
Pelvis Pinger_Root
L_Hip Pelvis
R_Hip Pelvis
Rear_Leg01 Pelvis
Spine1 Pelvis
L_Leg01 L_Hip
L_Leg02 L_Leg01
L_Leg03 L_Leg02
L_Foot L_Leg03
L_Toe1_01 L_Foot
L_Toe2_01 L_Foot
L_Toe3_01 L_Foot
planeAlignerLeft L_Foot
L_Toe1_02 L_Toe1_01
L_Toe1_03 L_Toe1_02
L_Toe2_02 L_Toe2_01
L_Toe2_03 L_Toe2_02
L_Toe3_02 L_Toe3_01
L_Toe3_03 L_Toe3_02
planeLockWeightLeft planeAlignerLeft
R_Leg01 R_Hip
R_Leg02 R_Leg01
R_Leg03 R_Leg02
R_Foot R_Leg03
planeAlignerRight R_Foot
R_Toe1_01 R_Foot
R_Toe2_01 R_Foot
R_Toe3_01 R_Foot
planeLockWeightRight planeAlignerRight
R_Toe1_02 R_Toe1_01
R_Toe1_03 R_Toe1_02
R_Toe2_02 R_Toe2_01
R_Toe2_03 R_Toe2_02
R_Toe3_02 R_Toe3_01
R_Toe3_03 R_Toe3_02
Rear_Leg02 Rear_Leg01
Rear_Leg03 Rear_Leg02
Rear_Leg04 Rear_Leg03
Rear_Foot Rear_Leg04
planeAlignerCenter Rear_Foot
Rear_Toe1_01 Rear_Foot
Rear_Toe2_01 Rear_Foot
Rear_Toe3_01 Rear_Foot
planeLockWeightCenter planeAlignerCenter
Rear_Toe1_02 Rear_Toe1_01
Rear_Toe1_03 Rear_Toe1_02
Rear_Toe2_02 Rear_Toe2_01
Rear_Toe2_03 Rear_Toe2_02
Rear_Toe3_02 Rear_Toe3_01
Rear_Toe3_03 Rear_Toe3_02
Back_Bone Spine1
Head Spine1
Motor_Bone Back_Bone
Ping_Mechanism Back_Bone
BN_LookIK Head
bottomMouth Head
L_Mouth01 Head
L_mouthFront Head
mouthGun Head
R_Mouth01 Head
R_mouthFront Head
TopMouth Head
weapon_bone Head
[BasePosition]
#SegmentName Tx, Ty, Tz, Rx, Ry, Rz, BoneLength
Pinger_Root 0.000000 0.000000 0.000000 -90.000000 0.000000 0.000000 10.000000 
Pelvis 0.000000 0.000000 0.000000 0.000000 0.000000 0.000000 10.000000 
L_Hip 0.000000 0.000000 0.000000 0.000000 0.000000 0.000000 10.000000 
R_Hip 0.000000 0.000000 0.000000 0.000000 0.000000 0.000000 10.000000 
Rear_Leg01 0.000000 0.000000 0.000000 0.000000 0.000000 0.000000 10.000000 
Spine1 0.000000 0.000000 0.000000 0.000000 0.000000 0.000000 10.000000 
L_Leg01 0.000000 0.000000 0.000000 0.000000 0.000000 0.000000 10.000000 
L_Leg02 0.000000 0.000000 0.000000 0.000000 0.000000 0.000000 10.000000 
L_Leg03 0.000000 0.000000 0.000000 0.000000 0.000000 0.000000 10.000000 
L_Foot 0.000000 0.000000 0.000000 0.000000 0.000000 0.000000 10.000000 
L_Toe1_01 0.000000 0.000000 0.000000 0.000000 0.000000 0.000000 10.000000 
L_Toe2_01 0.000000 0.000000 0.000000 0.000000 0.000000 0.000000 10.000000 
L_Toe3_01 0.000000 0.000000 0.000000 0.000000 0.000000 0.000000 10.000000 
planeAlignerLeft 0.000000 0.000000 0.000000 0.000000 0.000000 0.000000 10.000000 
L_Toe1_02 0.000000 0.000000 0.000000 0.000000 0.000000 0.000000 10.000000 
L_Toe1_03 0.000000 0.000000 0.000000 0.000000 0.000000 0.000000 10.000000 
L_Toe2_02 0.000000 0.000000 0.000000 0.000000 0.000000 0.000000 10.000000 
L_Toe2_03 0.000000 0.000000 0.000000 0.000000 0.000000 0.000000 10.000000 
L_Toe3_02 0.000000 0.000000 0.000000 0.000000 0.000000 0.000000 10.000000 
L_Toe3_03 0.000000 0.000000 0.000000 0.000000 0.000000 0.000000 10.000000 
planeLockWeightLeft 0.000000 0.000000 0.000000 0.000000 0.000000 0.000000 10.000000 
R_Leg01 0.000000 0.000000 0.000000 0.000000 0.000000 0.000000 10.000000 
R_Leg02 0.000000 0.000000 0.000000 0.000000 0.000000 0.000000 10.000000 
R_Leg03 0.000000 0.000000 0.000000 0.000000 0.000000 0.000000 10.000000 
R_Foot 0.000000 0.000000 0.000000 0.000000 0.000000 0.000000 10.000000 
planeAlignerRight 0.000000 0.000000 0.000000 0.000000 0.000000 0.000000 10.000000 
R_Toe1_01 0.000000 0.000000 0.000000 0.000000 0.000000 0.000000 10.000000 
R_Toe2_01 0.000000 0.000000 0.000000 0.000000 0.000000 0.000000 10.000000 
R_Toe3_01 0.000000 0.000000 0.000000 0.000000 0.000000 0.000000 10.000000 
planeLockWeightRight 0.000000 0.000000 0.000000 0.000000 0.000000 0.000000 10.000000 
R_Toe1_02 0.000000 0.000000 0.000000 0.000000 0.000000 0.000000 10.000000 
R_Toe1_03 0.000000 0.000000 0.000000 0.000000 0.000000 0.000000 10.000000 
R_Toe2_02 0.000000 0.000000 0.000000 0.000000 0.000000 0.000000 10.000000 
R_Toe2_03 0.000000 0.000000 0.000000 0.000000 0.000000 0.000000 10.000000 
R_Toe3_02 0.000000 0.000000 0.000000 0.000000 0.000000 0.000000 10.000000 
R_Toe3_03 0.000000 0.000000 0.000000 0.000000 0.000000 0.000000 10.000000 
Rear_Leg02 0.000000 0.000000 0.000000 0.000000 0.000000 0.000000 10.000000 
Rear_Leg03 0.000000 0.000000 0.000000 0.000000 0.000000 0.000000 10.000000 
Rear_Leg04 0.000000 0.000000 0.000000 0.000000 0.000000 0.000000 10.000000 
Rear_Foot 0.000000 0.000000 0.000000 0.000000 0.000000 0.000000 10.000000 
planeAlignerCenter 0.000000 0.000000 0.000000 0.000000 0.000000 0.000000 10.000000 
Rear_Toe1_01 0.000000 0.000000 0.000000 0.000000 0.000000 0.000000 10.000000 
Rear_Toe2_01 0.000000 0.000000 0.000000 0.000000 0.000000 0.000000 10.000000 
Rear_Toe3_01 0.000000 0.000000 0.000000 0.000000 0.000000 0.000000 10.000000 
planeLockWeightCenter 0.000000 0.000000 0.000000 0.000000 0.000000 0.000000 10.000000 
Rear_Toe1_02 0.000000 0.000000 0.000000 0.000000 0.000000 0.000000 10.000000 
Rear_Toe1_03 0.000000 0.000000 0.000000 0.000000 0.000000 0.000000 10.000000 
Rear_Toe2_02 0.000000 0.000000 0.000000 0.000000 0.000000 0.000000 10.000000 
Rear_Toe2_03 0.000000 0.000000 0.000000 0.000000 0.000000 0.000000 10.000000 
Rear_Toe3_02 0.000000 0.000000 0.000000 0.000000 0.000000 0.000000 10.000000 
Rear_Toe3_03 0.000000 0.000000 0.000000 0.000000 0.000000 0.000000 10.000000 
Back_Bone 0.000000 0.000000 0.000000 0.000000 0.000000 0.000000 10.000000 
Head 0.000000 0.000000 0.000000 0.000000 0.000000 0.000000 10.000000 
Motor_Bone 0.000000 0.000000 0.000000 0.000000 0.000000 0.000000 10.000000 
Ping_Mechanism 0.000000 0.000000 0.000000 0.000000 0.000000 0.000000 10.000000 
BN_LookIK 0.000000 0.000000 0.000000 0.000000 0.000000 0.000000 10.000000 
bottomMouth 0.000000 0.000000 0.000000 0.000000 0.000000 0.000000 10.000000 
L_Mouth01 0.000000 0.000000 0.000000 0.000000 0.000000 0.000000 10.000000 
L_mouthFront 0.000000 0.000000 0.000000 0.000000 0.000000 0.000000 10.000000 
mouthGun 0.000000 0.000000 0.000000 0.000000 0.000000 0.000000 10.000000 
R_Mouth01 0.000000 0.000000 0.000000 0.000000 0.000000 0.000000 10.000000 
R_mouthFront 0.000000 0.000000 0.000000 0.000000 0.000000 0.000000 10.000000 
TopMouth 0.000000 0.000000 0.000000 0.000000 0.000000 0.000000 10.000000 
weapon_bone 0.000000 0.000000 0.000000 0.000000 0.000000 0.000000 10.000000 
#Beginning of Data. Separated by tabs
#Fr	Tx	Ty	Tz	Rx	Ry	Rz	SF
[Pinger_Root]
44 0.000000 0.000000 0.000000 -0.000075 -0.000000 -0.000020 0.000000
45 0.000000 0.000000 0.000000 -0.000075 -0.000000 -0.000020 0.000000
46 0.000000 0.000000 0.000000 -0.000075 -0.000000 -0.000020 0.000000
[Pelvis]
44 409.963013 1000.577698 4172.004395 26.041466 -73.255898 -25.812870 4309.854492
45 475.679993 1071.144775 4264.634766 10.124646 -74.395401 -9.158648 4422.751465
46 543.595886 1149.138428 4361.291504 -8.427630 -74.078033 10.238009 4542.783203
[L_Hip]
44 5.766392 125.831482 872.656799 155.124908 -45.395542 128.701401 881.701050
45 5.766392 125.831482 872.656799 153.392258 -43.700348 131.510071 881.701050
46 5.766392 125.831482 872.656799 152.202774 -42.374012 133.550064 881.701050
[R_Hip]
44 5.765438 125.836372 -872.654907 111.230339 79.326134 -168.076111 881.699829
45 5.765438 125.836372 -872.654907 97.304382 78.540253 178.145737 881.699829
46 5.765438 125.836372 -872.654907 84.253319 77.041588 165.323959 881.699829
[Rear_Leg01]
44 -192.298416 -925.602966 -0.001907 143.694061 -2.459831 -117.487686 945.367432
45 -192.298416 -925.602966 -0.001907 149.122406 -2.525523 -125.028229 945.367432
46 -192.298416 -925.602966 -0.001907 157.146667 -2.556638 -135.384384 945.367432
[Spine1]
44 290.604584 5.007505 0.000477 -5.443774 -9.860023 31.682598 290.647736
45 290.604584 5.007505 0.000477 -5.609353 -9.757213 26.858252 290.647736
46 290.604584 5.007505 0.000477 -5.770838 -9.526932 21.490625 290.647736
[L_Leg01]
44 761.932007 -0.002384 -0.069261 38.228271 -29.346451 -25.946154 761.932068
45 761.932007 -0.002384 -0.069261 36.627834 -31.694704 -19.162691 761.932068
46 761.932007 -0.002384 -0.069261 36.261547 -34.297333 -13.412422 761.932068
[L_Leg02]
44 1441.140503 -0.000954 -0.000715 -1.414434 0.583765 -103.510162 1441.140503
45 1441.140503 -0.000954 -0.000715 -1.421586 0.609108 -103.081398 1441.140503
46 1441.140503 -0.000954 -0.000715 -1.421351 0.638098 -101.529800 1441.140503
[L_Leg03]
44 1686.963989 -0.000715 -0.000954 0.043668 -0.010276 98.533394 1686.963989
45 1686.963989 -0.000715 -0.000954 0.048905 -0.011881 97.298019 1686.963989
46 1686.963989 -0.000715 -0.000954 0.054176 -0.013374 96.062691 1686.963989
[L_Foot]
44 3041.570068 -30.715107 11.297464 -6.816069 3.153552 47.928558 3041.746094
45 3041.570068 -30.715107 11.297464 -8.023971 4.495515 48.803272 3041.746094
46 3041.570068 -30.715107 11.297464 -9.568792 7.004614 49.355301 3041.746094
[L_Toe1_01]
44 -188.216690 -224.732346 -21.137953 94.280670 -28.131250 179.902283 293.899567
45 -188.216690 -224.732346 -21.137953 94.280670 -28.131250 179.902283 293.899567
46 -188.216690 -224.732346 -21.137953 94.280670 -28.131250 179.902283 293.899567
[L_Toe2_01]
44 200.746536 -219.926590 148.838394 -108.981178 -14.925828 -28.372850 332.896027
45 200.746536 -219.926590 148.838394 -108.981178 -14.925756 -28.372950 332.896027
46 200.746536 -219.926590 148.838394 -108.981163 -14.925685 -28.373047 332.896027
[L_Toe3_01]
44 188.832520 -219.859131 -191.078659 -119.528816 36.514465 -78.862701 347.140900
45 188.832520 -219.859131 -191.078659 -119.528816 36.514465 -78.862701 347.140900
46 188.832520 -219.859131 -191.078659 -119.528816 36.514465 -78.862701 347.140900
[planeAlignerLeft]
44 0.812531 -811.448792 -0.314951 0.000000 -90.000000 -90.001900 811.449280
45 0.812531 -811.448792 -0.314951 0.000000 -90.000000 -90.001900 811.449280
46 0.812531 -811.448792 -0.314951 0.000000 -90.000000 -90.001900 811.449280
[L_Toe1_02]
44 413.761139 0.000477 0.000000 0.001661 0.070897 0.001661 413.761139
45 413.761139 0.000477 0.000000 0.001661 0.070897 0.001661 413.761139
46 413.761139 0.000477 0.000000 0.001661 0.070897 0.001661 413.761139
[L_Toe1_03]
44 464.317322 0.000358 -0.000089 0.001673 -0.448396 -0.003292 464.317322
45 464.317322 0.000358 -0.000089 0.001673 -0.448396 -0.003292 464.317322
46 464.317322 0.000358 -0.000089 0.001673 -0.448396 -0.003292 464.317322
[L_Toe2_02]
44 342.235809 -0.000477 0.000238 0.004684 -81.238953 0.004684 342.235809
45 342.235809 -0.000477 0.000238 0.004684 -81.239311 0.004684 342.235809
46 342.235809 -0.000477 0.000238 0.004684 -81.239586 0.004684 342.235809
[L_Toe2_03]
44 420.210846 -0.000715 0.000000 179.993195 44.163803 -179.999222 420.210846
45 420.210846 -0.000715 0.000000 179.993195 44.163803 -179.999222 420.210846
46 420.210846 -0.000715 0.000000 179.993195 44.163803 -179.999222 420.210846
[L_Toe3_02]
44 329.270111 0.000954 0.000000 0.004675 -84.662888 0.004675 329.270111
45 329.270111 0.000954 0.000000 0.004675 -84.662231 0.004675 329.270111
46 329.270111 0.000954 0.000000 0.004675 -84.661713 0.004675 329.270111
[L_Toe3_03]
44 439.137451 -0.001907 0.000954 179.993454 37.691116 -179.998764 439.137451
45 439.137451 -0.001907 0.000954 179.993454 37.691116 -179.998764 439.137451
46 439.137451 -0.001907 0.000954 179.993454 37.691116 -179.998764 439.137451
[planeLockWeightLeft]
44 -0.000954 0.000238 -0.000305 -0.011826 -0.004376 0.005620 0.001029
45 -0.000954 0.000238 -0.000305 -0.011826 -0.004376 0.005620 0.001029
46 -0.000954 0.000238 -0.000305 -0.011826 -0.004376 0.005620 0.001029
[R_Leg01]
44 761.455627 -0.001907 -0.000358 104.073128 -6.616221 45.081844 761.455688
45 761.455627 -0.001907 -0.000358 107.739395 -7.758378 43.948044 761.455688
46 761.455627 -0.001907 -0.000358 110.758255 -11.339488 41.715317 761.455688
[R_Leg02]
44 1441.140625 0.000000 -0.000238 -2.703453 -1.623443 -136.194656 1441.140625
45 1441.140625 0.000000 -0.000238 -2.627313 -1.453042 -135.084854 1441.140625
46 1441.140625 0.000000 -0.000238 -2.527198 -1.240879 -136.789642 1441.140625
[R_Leg03]
44 1686.963989 0.000954 0.001431 0.141363 -0.095826 148.869339 1686.963989
45 1686.963989 0.000954 0.001431 0.136402 -0.090713 147.455078 1686.963989
46 1686.963989 0.000954 0.001431 0.125735 -0.081580 145.243668 1686.963989
[R_Foot]
44 3041.560059 -30.531288 -11.204481 -8.213023 -9.971592 62.522297 3041.734131
45 3041.560059 -30.531288 -11.204481 -8.415980 -10.890941 64.481857 3041.734131
46 3041.560059 -30.531288 -11.204481 -8.516946 -13.085773 67.822144 3041.734131
[planeAlignerRight]
44 -0.635147 -812.270569 -0.364304 0.000000 -89.960434 -90.005180 812.270874
45 -0.635147 -812.270569 -0.364304 0.000000 -89.960434 -90.005180 812.270874
46 -0.635147 -812.270569 -0.364304 0.000000 -89.960434 -90.005180 812.270874
[R_Toe1_01]
44 -188.383347 -224.864899 21.052242 77.303169 -3.074537 169.549545 294.101532
45 -188.383347 -224.864899 21.052242 77.324516 -3.121036 169.368454 294.101532
46 -188.383347 -224.864899 21.052242 77.346016 -3.167464 169.187317 294.101532
[R_Toe2_01]
44 200.637817 -220.002121 -148.787384 -84.523132 32.579407 -46.353203 332.857574
45 200.637817 -220.002121 -148.787384 -84.446915 32.572742 -46.218235 332.857574
46 200.637817 -220.002121 -148.787384 -84.370705 32.565914 -46.083267 332.857574
[R_Toe3_01]
44 188.606735 -220.092957 191.126343 -73.518044 -7.861080 -62.112968 347.192566
45 188.606735 -220.092957 191.126343 -73.510376 -7.900759 -61.983093 347.192566
46 188.606735 -220.092957 191.126343 -73.502815 -7.940461 -61.853210 347.192566
[planeLockWeightRight]
44 -0.000477 0.000000 0.000000 -0.011823 -0.004379 -0.000027 0.000477
45 -0.000477 0.000000 0.000000 -0.011823 -0.004379 -0.000027 0.000477
46 -0.000477 0.000000 0.000000 -0.011823 -0.004379 -0.000027 0.000477
[R_Toe1_02]
44 413.762085 0.000477 -0.000119 0.001465 -16.454084 0.001465 413.762085
45 413.762085 0.000477 -0.000119 0.001466 -16.400534 0.001466 413.762085
46 413.762085 0.000477 -0.000119 0.001466 -16.346987 0.001466 413.762085
[R_Toe1_03]
44 464.317810 0.000000 0.001088 -179.996353 77.799858 -179.992828 464.317810
45 464.317810 0.000000 0.001088 -179.996429 77.614067 -179.992920 464.317810
46 464.317810 0.000000 0.001088 -179.996506 77.428253 -179.992996 464.317810
[R_Toe2_02]
44 342.234741 -0.000954 0.000238 0.001230 -55.198711 0.001230 342.234741
45 342.234741 -0.000954 0.000238 0.001230 -55.233109 0.001230 342.234741
46 342.234741 -0.000954 0.000238 0.001230 -55.267498 0.001230 342.234741
[R_Toe2_03]
44 420.210846 0.000715 -0.000268 -0.003687 53.753460 -0.000008 420.210846
45 420.210846 0.000715 -0.000268 -0.003689 53.800079 -0.000011 420.210846
46 420.210846 0.000715 -0.000268 -0.003691 53.846706 -0.000013 420.210846
[R_Toe3_02]
44 329.270355 -0.000477 -0.000954 0.001188 -71.920715 0.001188 329.270355
45 329.270355 -0.000477 -0.000954 0.001188 -71.959373 0.001188 329.270355
46 329.270355 -0.000477 -0.000954 0.001188 -71.998016 0.001188 329.270355
[R_Toe3_03]
44 439.137939 0.000238 0.001431 0.010706 77.412933 0.010706 439.137939
45 439.137939 0.000238 0.001431 0.010775 77.493500 0.010775 439.137939
46 439.137939 0.000238 0.001431 0.010844 77.574097 0.010844 439.137939
[Rear_Leg02]
44 1162.777710 -0.029802 0.005960 29.772427 30.595730 -41.702938 1162.777710
45 1162.777710 -0.029802 0.005960 22.385830 28.501377 -51.001404 1162.777710
46 1162.777710 -0.029802 0.005960 14.486329 24.863241 -64.298203 1162.777710
[Rear_Leg03]
44 607.192505 -0.013351 -0.073195 0.003868 0.005605 41.010757 607.192505
45 607.192505 -0.013351 -0.073195 0.003998 0.005513 43.694447 607.192505
46 607.192505 -0.013351 -0.073195 0.005022 0.003219 47.242096 607.192505
[Rear_Leg04]
44 995.874512 -0.020504 -0.011921 -0.030810 -0.012810 20.632671 995.874573
45 995.874512 -0.020504 -0.011921 -0.031205 -0.011815 24.308538 995.874573
46 995.874512 -0.020504 -0.011921 -0.032940 -0.015231 29.296410 995.874573
[Rear_Foot]
44 3096.176270 -0.067472 -0.041425 93.747322 52.451523 -66.449852 3096.176270
45 3096.176270 -0.067472 -0.041425 92.857773 58.592724 -67.941956 3096.176270
46 3096.176270 -0.067472 -0.041425 89.609978 65.717064 -71.441879 3096.176270
[planeAlignerCenter]
44 0.350077 0.966311 -838.790894 0.000009 0.000003 -179.999985 838.791565
45 0.350077 0.966311 -838.790894 0.000009 0.000003 -179.999985 838.791565
46 0.350077 0.966311 -838.790894 0.000009 0.000003 -179.999985 838.791565
[Rear_Toe1_01]
44 0.653352 83.966492 -371.173737 -4.819199 42.015163 99.379349 380.553192
45 0.653352 83.966492 -371.173737 -4.512728 45.147594 98.278305 380.553192
46 0.653352 83.966492 -371.173737 -1.387594 48.130192 96.570526 380.553192
[Rear_Toe2_01]
44 178.200760 -294.826019 -362.060547 -33.039833 49.686348 -78.732155 499.765686
45 178.200760 -294.826019 -362.060547 -29.379704 52.529533 -77.090866 499.765686
46 178.200760 -294.826019 -362.060547 -24.558584 54.563408 -75.068703 499.765686
[Rear_Toe3_01]
44 -153.359680 -308.780914 -362.060852 -19.153685 20.956551 -118.944359 499.952881
45 -153.359680 -308.780914 -362.060852 -18.194088 22.495869 -119.902130 499.952881
46 -153.359680 -308.780914 -362.060852 -17.120554 25.588663 -121.373924 499.952881
[planeLockWeightCenter]
44 -0.000062 0.000238 0.000000 -0.011814 -0.004373 -0.000015 0.000246
45 -0.000062 0.000238 0.000000 -0.011814 -0.004373 -0.000015 0.000246
46 -0.000062 0.000238 0.000000 -0.011814 -0.004373 -0.000015 0.000246
[Rear_Toe1_02]
44 379.707825 0.194073 0.000477 0.000513 -32.619019 0.004155 379.707855
45 379.707825 0.194073 0.000477 0.001334 -33.175541 0.001334 379.707855
46 379.707825 0.194073 0.000477 0.001332 -33.480137 0.001332 379.707855
[Rear_Toe1_03]
44 500.129700 0.165701 0.000119 -0.003878 57.555340 -0.000236 500.129761
45 500.129700 0.165701 0.000119 -0.004255 62.936314 -0.000658 500.129761
46 500.129700 0.165701 0.000119 -0.004761 67.754463 -0.001197 500.129761
[Rear_Toe2_02]
44 340.494507 0.000238 -0.000954 0.001178 -80.059677 0.001178 340.494507
45 340.494507 0.000238 -0.000954 0.001174 -87.865219 0.001174 340.494507
46 340.494507 0.000238 -0.000954 179.998825 -88.140381 179.998825 340.494507
[Rear_Toe2_03]
44 433.103577 0.000000 0.000238 0.059313 87.732468 0.059313 433.103546
45 433.103577 0.000000 0.000238 -179.994263 73.365623 -179.997787 433.103546
46 433.103577 0.000000 0.000238 -179.996033 59.158871 -179.999649 433.103546
[Rear_Toe3_02]
44 340.494141 -0.000358 -0.000477 0.001174 -87.556473 0.001174 340.494171
45 340.494141 -0.000358 -0.000477 -179.997681 -87.776306 -179.997681 340.494171
46 340.494141 -0.000358 -0.000477 -179.994171 -85.802269 -179.994171 340.494171
[Rear_Toe3_03]
44 433.103577 0.001431 -0.000238 -179.997543 74.318268 -179.994019 433.103546
45 433.103577 0.001431 -0.000238 179.992172 57.482475 179.999451 433.103546
46 433.103577 0.001431 -0.000238 179.993088 45.979313 -179.999359 433.103546
[Back_Bone]
44 1312.175781 -701.934692 0.000954 -3.374689 -4.286450 -82.498322 1488.125488
45 1312.175781 -701.934692 0.000954 -5.601434 -2.746197 -82.123695 1488.125488
46 1312.175781 -701.934692 0.000954 -6.892035 -1.123172 -82.933998 1488.125488
[Head]
44 1406.159424 809.709290 0.001431 3.974459 1.875083 15.513880 1622.625488
45 1406.159424 809.709290 0.001431 4.078938 2.010014 14.559665 1622.625488
46 1406.159424 809.709290 0.001431 3.480810 1.468236 13.666594 1622.625488
[Motor_Bone]
44 1158.364380 -417.834747 0.000477 -2.070124 9.970466 -114.428154 1231.419434
45 1158.364380 -417.834747 0.000477 -1.902376 12.286103 -114.811440 1231.419434
46 1158.364380 -417.834747 0.000477 -1.466418 12.227115 -113.061394 1231.419434
[Ping_Mechanism]
44 1193.014648 -413.043884 79.074638 0.000103 -0.000053 82.120995 1264.967163
45 1210.711792 -430.185150 78.617981 0.000103 -0.000053 82.120995 1287.269653
46 1231.420654 -445.727112 77.695137 0.000103 -0.000053 82.120995 1311.909302
[BN_LookIK]
44 193.241119 1380.371704 -0.002861 0.000000 89.965736 -31.038179 1393.832153
45 193.241119 1380.371704 -0.002861 0.000000 89.965736 -31.038179 1393.832153
46 193.241119 1380.371704 -0.002861 0.000000 89.965736 -31.038179 1393.832153
[bottomMouth]
44 -435.092926 615.759399 -0.000954 -0.000022 0.000016 73.527184 753.966492
45 -435.092926 615.759399 -0.000954 -0.000022 0.000016 73.527184 753.966492
46 -435.092926 615.759399 -0.000954 -0.000022 0.000016 73.527184 753.966492
[L_Mouth01]
44 554.440979 7.658243 838.222046 150.204178 23.759130 109.605339 1005.027161
45 554.440979 7.658243 838.222046 150.204178 23.759130 109.605339 1005.027161
46 554.440979 7.658243 838.222046 150.204178 23.759130 109.605339 1005.027161
[L_mouthFront]
44 551.629089 934.514771 339.150421 0.000081 2.804060 79.119301 1136.941284
45 551.629089 934.514771 339.150421 0.000081 2.804060 79.119301 1136.941284
46 551.629089 934.514771 339.150421 0.000081 2.804060 79.119301 1136.941284
[mouthGun]
44 55.332661 1627.420898 0.000000 0.000023 0.000009 -11.038128 1628.361328
45 55.332661 1627.420898 0.000000 0.000023 0.000009 -11.038128 1628.361328
46 55.332661 1627.420898 0.000000 0.000023 0.000009 -11.038128 1628.361328
[R_Mouth01]
44 554.442383 7.659197 -838.223938 29.795891 -23.759109 109.605331 1005.029541
45 554.442383 7.659197 -838.223938 29.795891 -23.759109 109.605331 1005.029541
46 554.442383 7.659197 -838.223938 29.795891 -23.759109 109.605331 1005.029541
[R_mouthFront]
44 551.629089 934.514282 -339.151367 0.000029 -2.803930 79.119133 1136.941162
45 551.629089 934.514282 -339.151367 0.000029 -2.803930 79.119133 1136.941162
46 551.629089 934.514282 -339.151367 0.000029 -2.803930 79.119133 1136.941162
[TopMouth]
44 461.269867 -56.106091 -0.008583 -0.000059 -0.000268 92.025169 464.669525
45 461.269867 -56.106091 -0.008583 -0.000059 -0.000268 92.025169 464.669525
46 461.269867 -56.106091 -0.008583 -0.000059 -0.000268 92.025169 464.669525
[weapon_bone]
44 -987.239868 1448.372803 0.001431 0.000000 89.965736 -31.038221 1752.833740
45 -987.239868 1448.372803 0.001431 0.000000 89.965736 -31.038221 1752.833740
46 -987.239868 1448.372803 0.001431 0.000000 89.965736 -31.038221 1752.833740
